# Blender 3.3.1
# www.blender.org
mtllib boost mesh.mtl
o Cylinder
v -0.000000 -1.000000 -2.168972
v 0.000000 1.000000 -0.543565
v 1.533695 -1.000000 -1.533695
v 0.384359 1.000000 -0.384359
v 2.168972 -1.000000 0.000000
v 0.543565 1.000000 0.000000
v 1.533695 -1.000000 1.533695
v 0.384359 1.000000 0.384359
v -0.000000 -1.000000 2.168972
v 0.000000 1.000000 0.543565
v -1.533695 -1.000000 1.533695
v -0.384359 1.000000 0.384359
v -2.168972 -1.000000 0.000000
v -0.543565 1.000000 0.000000
v -1.533695 -1.000000 -1.533695
v -0.384359 1.000000 -0.384359
v -0.000000 -0.996615 -2.161630
v 0.000000 0.996615 -0.541725
v 1.528503 -0.996615 -1.528503
v 0.383058 0.996615 -0.383058
v 2.161630 -0.996615 -0.000000
v 0.541725 0.996615 -0.000000
v 1.528503 -0.996615 1.528503
v 0.383058 0.996615 0.383058
v -0.000000 -0.996615 2.161630
v 0.000000 0.996615 0.541725
v -1.528503 -0.996615 1.528503
v -0.383058 0.996615 0.383058
v -2.161630 -0.996615 -0.000000
v -0.541725 0.996615 -0.000000
v -1.528503 -0.996615 -1.528503
v -0.383058 0.996615 -0.383058
vn 0.3060 0.6004 -0.7388
vn 0.7388 0.6004 -0.3060
vn 0.7388 0.6004 0.3060
vn 0.3060 0.6004 0.7388
vn -0.3060 0.6004 0.7388
vn -0.7388 0.6004 0.3060
vn -0.7388 -0.6004 0.3060
vn -0.7388 0.6004 -0.3060
vn -0.3060 0.6004 -0.7388
vn -0.3060 -0.6004 0.7388
vn -0.7388 -0.6004 -0.3060
vn -0.3060 -0.6004 -0.7388
vn 0.3060 -0.6004 -0.7388
vn 0.7388 -0.6004 -0.3060
vn 0.7388 -0.6004 0.3060
vn 0.3060 -0.6004 0.7388
vt 0.000000 -0.004883
vt 1.000000 -0.004883
vt 0.359375 1.062500
vt 0.640625 1.062500
vt 1.000000 -0.004883
vt 0.000000 -0.004883
vt 0.640625 1.062500
vt 0.359375 1.062500
vt 1.000000 -0.004883
vt 0.000000 -0.004883
vt 0.640625 1.062500
vt 0.359375 1.062500
vt 1.000000 -0.004883
vt 0.000000 -0.004883
vt 0.640625 1.062500
vt 0.359375 1.062500
vt 1.000000 -0.004883
vt 0.000000 -0.004883
vt 0.640625 1.062500
vt 0.359375 1.062500
vt 1.000000 -0.004883
vt 0.000000 -0.004883
vt 0.640625 1.062500
vt 0.359375 1.062500
vt 1.000000 -0.004883
vt 0.000000 -0.004883
vt 0.640625 1.062500
vt 0.359375 1.062500
vt 1.000000 -0.004883
vt 0.000000 -0.004883
vt 0.640625 1.062500
vt 0.359375 1.062500
vt 1.000000 -0.000000
vt -0.000000 0.000000
vt 0.625000 1.031250
vt 0.375000 1.031250
vt 1.000000 -0.000000
vt -0.000000 0.000000
vt 0.625000 1.031250
vt 0.375000 1.031250
vt -0.000000 0.000000
vt 1.000000 -0.000000
vt 0.375000 1.031250
vt 0.625000 1.031250
vt -0.000000 0.000000
vt 1.000000 -0.000000
vt 0.375000 1.031250
vt 0.625000 1.031250
vt -0.000000 0.000000
vt 1.000000 -0.000000
vt 0.375000 1.031250
vt 0.625000 1.031250
vt -0.000000 0.000000
vt 1.000000 -0.000000
vt 0.375000 1.031250
vt 0.625000 1.031250
vt -0.000000 0.000000
vt 1.000000 -0.000000
vt 0.375000 1.031250
vt 0.625000 1.031250
vt -0.000000 0.000000
vt 1.000000 -0.000000
vt 0.375000 1.031250
vt 0.625000 1.031250
s 0
usemtl Material.001
f 1/1/1 2/3/1 4/7/1 3/5/1
f 3/6/2 4/8/2 6/11/2 5/9/2
f 5/10/3 6/12/3 8/15/3 7/13/3
f 7/14/4 8/16/4 10/19/4 9/17/4
f 9/18/5 10/20/5 12/23/5 11/21/5
f 11/22/6 12/24/6 14/27/6 13/25/6
f 19/37/7 21/41/7 22/43/7 20/39/7
f 13/26/8 14/28/8 16/31/8 15/29/8
f 15/30/9 16/32/9 2/4/9 1/2/9
f 17/33/10 19/38/10 20/40/10 18/35/10
f 21/42/11 23/45/11 24/47/11 22/44/11
f 23/46/12 25/49/12 26/51/12 24/48/12
f 25/50/13 27/53/13 28/55/13 26/52/13
f 27/54/14 29/57/14 30/59/14 28/56/14
f 29/58/15 31/61/15 32/63/15 30/60/15
f 31/62/16 17/34/16 18/36/16 32/64/16
