# Blender 3.3.1
# www.blender.org
o Cube
v -3.578093 1.084125 2.053388
v 3.971296 -1.387811 1.273961
v 2.110557 0.850766 1.308663
v 0.752039 1.544149 -0.223942
v 4.699340 0.368758 1.073887
v 3.424489 1.929313 1.293851
v -0.296672 -0.969911 5.513176
v 4.458448 2.237632 -0.204211
v 0.822987 1.087467 4.889012
v 0.995678 1.092426 6.026863
v -2.877756 -0.703813 4.210308
v 2.564137 -1.399081 4.766742
v 3.742327 -2.957655 -0.159908
v 0.140792 -0.936182 4.642537
v 2.714366 1.499403 4.207340
v 1.763724 -1.196569 1.091495
v 2.081377 -0.666478 5.595323
v 3.390609 -0.504171 3.336425
v 3.487659 0.283831 3.445521
v 2.677256 0.094119 5.727169
v -3.694416 -0.626049 3.370887
v -0.859222 -0.043677 4.346837
v 1.749609 0.608922 3.194276
v 2.911162 0.876811 3.450821
v 2.091197 0.442280 6.377790
v -3.462018 -0.780150 2.365832
v 0.592715 0.263024 6.159745
v 2.711035 1.198740 2.638248
v 1.742351 -0.512357 3.235279
v -2.340330 0.354985 4.985860
v 0.171932 1.003024 5.576448
v 3.555279 0.533828 5.220625
v 2.434011 -0.914984 2.911357
v 1.071921 0.190868 4.218230
v -3.734190 1.596936 -0.166245
v 0.924083 -0.502148 5.805324
v -3.308367 0.314525 4.102601
v -1.877512 -0.874383 5.005226
v 2.188550 1.194699 5.218003
v -0.849698 -0.832330 4.749799
v -3.542840 0.857704 2.875786
v 1.216983 -0.633694 4.937528
v -0.855387 -0.141493 5.554369
v -4.352529 -0.691888 1.140858
v -2.007938 -0.331621 2.184740
v -2.569106 -1.424174 1.169569
v -1.682700 -0.223299 2.670785
v -1.768580 0.732333 0.636606
v -4.539792 -2.202484 -0.137794
v -1.412303 0.817597 4.161343
v -2.601238 1.194556 3.150663
v -1.726251 -0.022874 3.373991
v -2.311957 0.675296 2.194723
v -2.782822 -1.174158 2.927391
v -1.182485 -2.420833 -0.051170
v -2.102469 1.064019 3.850429
v -3.735486 0.420876 2.407653
v -2.102765 -0.868660 3.553658
v -0.990244 0.581699 5.025458
v 1.778986 -0.648566 2.444608
v 1.369801 -1.834489 -0.194248
v -1.452878 1.658497 -0.098356
vn 0.9632 0.1275 0.2365
vn 0.9060 0.2703 0.3258
vn -0.2604 -0.6048 0.7526
vn 0.3290 0.9249 0.1905
vn -0.9735 0.2057 -0.1004
vn 0.3012 -0.7275 0.6165
vn -0.0677 -0.8091 0.5837
vn -0.7991 -0.2017 0.5664
vn -0.0401 0.6295 0.7760
vn 0.2906 0.9471 0.1360
vn -0.3745 -0.9038 0.2071
vn -0.9320 0.3332 0.1425
vn 0.1086 -0.7060 0.6998
vn -0.4063 0.8014 0.4391
vn 0.9138 -0.3722 0.1627
vn -0.2249 0.8260 -0.5168
vn -0.9572 0.1748 0.2308
vn -0.9588 -0.2117 -0.1892
vn 0.0974 -0.9321 0.3489
vn 0.5919 -0.7584 -0.2728
vn -0.4131 0.8009 0.4335
vn -0.7082 -0.2289 0.6678
vn 0.7055 0.5900 -0.3928
vn 0.1391 -0.7237 -0.6760
vn 0.1115 0.1510 0.9822
vn -0.9471 0.1844 0.2627
vn -0.5103 -0.8599 0.0139
vn -0.3842 -0.8757 0.2926
vn 0.7808 0.2415 -0.5763
vn 0.9388 0.3422 -0.0394
vn -0.0093 -0.9800 -0.1986
vn 0.6330 -0.4199 -0.6504
vn -0.6294 -0.2252 0.7437
vn 0.0582 0.8412 0.5375
vn 0.1896 -0.7443 0.6404
vn -0.3930 -0.1336 0.9098
vn 0.7049 -0.3159 -0.6350
vn 0.7104 0.3213 -0.6262
vn -0.0977 -0.9864 0.1323
vn -0.5102 0.4437 0.7368
vn -0.2436 0.6893 -0.6823
vn 0.4774 0.6951 0.5375
vn -0.1701 -0.1630 0.9718
vn 0.3627 -0.5756 -0.7329
vn 0.2091 -0.9539 0.2152
vn -0.1427 -0.4517 -0.8807
vn -0.2759 0.9502 -0.1446
vn -0.0218 -0.3364 -0.9415
vn -0.7346 -0.5173 0.4390
vn -0.4454 0.3842 0.8087
vn -0.2179 -0.4863 0.8462
vn -0.1140 -0.9889 -0.0956
vn 0.3279 -0.9359 0.1285
vn -0.1235 0.5723 -0.8107
vn -0.1674 0.2347 0.9575
vn 0.4886 -0.5060 0.7108
vn 0.7541 0.5203 0.4008
vn 0.1133 -0.3768 0.9194
vn -0.0802 0.9968 0.0078
vn 0.2965 0.7896 0.5372
vn -0.8831 0.4502 0.1321
vn -0.0499 -0.5756 0.8162
vn -0.1203 -0.9867 0.1090
vn 0.5745 -0.7371 0.3559
vn -0.5549 -0.8137 -0.1734
vn -0.8630 -0.4097 -0.2956
vn 0.4746 -0.8430 -0.2532
vn 0.8049 0.5827 -0.1127
vn -0.8511 0.1418 -0.5054
vn 0.8963 -0.2859 0.3390
vn -0.3354 0.8426 -0.4213
vn -0.5029 -0.8372 -0.2149
vn 0.4789 -0.5003 0.7214
vn -0.3894 -0.7908 0.4723
vn -0.8310 -0.0150 -0.5561
vn 0.9926 -0.1193 -0.0210
vn 0.3890 0.8063 0.4455
vn -0.9989 0.0047 -0.0471
vn 0.0271 -0.0114 -0.9996
vn 0.7139 0.6932 0.0988
vn -0.5185 0.8550 0.0104
vn -0.4650 0.5757 0.6726
vn 0.3010 0.7617 0.5737
vn -0.9488 -0.2889 0.1277
vn -0.5437 -0.7757 0.3203
vn 0.9222 -0.1302 -0.3642
vn -0.9807 0.0827 -0.1771
vn 0.8525 -0.3050 0.4246
vn 0.6765 0.4731 0.5643
vn 0.4646 -0.6332 0.6190
vn -0.9173 -0.1645 0.3627
vn -0.6317 0.7707 0.0836
vn -0.4429 0.6016 0.6648
vn 0.9067 -0.3488 0.2371
vn 0.9301 -0.1603 0.3305
vn -0.5134 -0.7991 0.3128
vn 0.1876 -0.8827 0.4310
vn 0.7376 0.5467 0.3964
vn -0.1838 0.9801 0.0749
vn 0.0501 0.4613 0.8858
vn -0.9323 0.3157 0.1768
vn 0.8304 0.5549 -0.0501
vn -0.0721 0.7439 -0.6644
vn 0.6039 -0.7619 -0.2343
vn -0.1656 0.9278 0.3342
vn 0.4973 0.4869 -0.7181
vn -0.9087 0.4121 0.0670
vn -0.1198 0.5714 0.8119
vn 0.8344 0.4761 -0.2776
vn -0.0354 0.7671 -0.6405
vn 0.6666 0.6513 -0.3626
vn 0.2365 0.4925 0.8375
vn -0.1298 0.9660 0.2237
vn -0.2903 0.8630 0.4134
vn -0.4522 -0.8822 0.1310
vn -0.3761 -0.7790 0.5017
vn 0.8852 0.0640 0.4609
vn 0.0083 -0.0087 -0.9999
vt 0.001463 0.498761
vt 0.502101 0.755229
vt 0.998747 1.003003
vt 0.751943 0.246826
vt 0.001463 1.003003
vt 0.502101 -0.000947
vt 0.502101 0.498761
vt 0.751943 0.498761
vt 0.502101 0.755229
vt 0.751943 1.003003
vt 0.001463 -0.000947
vt 0.502101 1.003003
vt 0.998747 -0.000947
vt 0.998747 1.003003
vt 0.001463 0.498761
vt 0.502101 0.246826
vt 0.001463 1.003003
vt 0.998747 0.498761
vt 0.502101 1.003003
vt 0.970110 0.269236
vt 0.502101 -0.000947
vt 0.502101 1.003003
vt 0.998747 0.498761
vt 0.502101 0.498761
vt 0.502101 0.755229
vt 0.502101 -0.000947
vt 0.998747 0.498761
vt 0.502101 0.498761
vt 0.751943 0.755229
vt 0.998747 0.498761
vt 0.998747 1.003003
vt 0.502101 0.755229
vt 0.998747 -0.000947
vt 0.998747 0.498761
vt 0.873834 0.390789
vt 0.998747 0.498761
vt 0.502101 1.003003
vt 0.001463 0.755229
vt 0.751943 1.003003
vt 0.751943 0.755229
vt 0.751943 0.498761
vt 0.751943 0.498761
vt 0.249236 0.755229
vt 0.998747 -0.000947
vt 0.751943 0.755229
vt 0.751943 0.498761
vt 0.751943 0.755229
vt 0.751943 0.246826
vt 0.998747 0.246826
vt 0.998747 0.755229
vt 0.998747 0.755229
vt 0.502101 0.498761
vt 0.502101 1.003003
vt 0.998747 -0.000947
vt 0.751943 1.003003
vt 0.502101 0.498761
vt 0.998747 -0.000947
vt 0.502101 1.003003
vt 0.998747 0.498761
vt 0.001463 1.003003
vt 0.719889 0.258883
vt 0.998747 1.003003
vt 0.998747 0.755229
vt 0.751943 0.755229
vt 0.502101 -0.000947
vt 0.502101 1.003003
vt 0.751943 0.755229
vt 0.998747 -0.000947
vt 0.998747 0.246826
vt 0.502101 1.003003
vt 0.001463 0.498761
vt 0.998747 1.003003
vt 0.502101 0.498761
vt 0.751943 0.498761
vt 0.249236 1.003003
vt 0.502101 0.498761
vt 0.751943 1.003003
vt 0.998747 0.246826
vt 0.751943 0.755229
vt 0.998747 -0.000947
vt 0.502101 1.003003
vt 0.502101 0.755229
vt 0.751943 -0.000947
vt 0.001463 1.003003
vt 0.751943 0.755229
vt 0.998747 0.755229
vt 0.001463 1.003003
vt 0.502101 0.498761
vt 0.998747 -0.000947
vt 0.502101 1.003003
vt 0.998747 0.498761
vt 0.998747 1.003003
vt 0.751943 0.498761
vt 0.998747 0.498761
vt 0.751943 0.246826
vt 0.751943 0.755229
vt 0.998747 -0.000947
vt 0.751943 0.498761
vt 0.998747 0.755229
vt 0.751943 1.003003
vt 0.502101 1.003003
vt 0.751943 1.003003
vt 0.998747 0.755229
vt 0.998747 -0.000947
vt 0.998747 0.246826
vt 0.502101 1.003003
vt 0.751943 -0.000947
vt 0.502101 0.755229
vt 0.998747 0.498761
vt 0.751943 0.246826
vt 0.751943 0.755229
vt 0.751943 0.755229
vt 0.751943 -0.000947
vt 0.751943 0.498761
vt 0.751943 0.755229
vt 0.998747 0.246826
vt 0.751943 1.003003
vt 0.751943 -0.000947
vt 0.998747 0.498761
vt 0.502101 0.498761
vt 0.751943 0.755229
vt 0.998747 1.003003
vt 0.998747 0.498761
vt 0.502101 0.755229
vt 0.998747 0.755229
vt 0.998747 -0.000947
vt 0.751943 1.003003
vt 0.751943 0.498761
vt 0.001463 0.755229
vt 0.502101 -0.000947
vt 0.998747 0.498761
vt 0.998747 0.498761
vt 0.751943 0.755229
vt 0.751943 1.003003
vt 0.998747 0.755229
vt 0.998747 -0.000947
vt 0.998747 0.755229
vt 0.998747 0.246826
vt 0.502101 0.755229
vt 0.751943 1.003003
vt 0.998747 0.755229
vt 0.751943 1.003003
vt 0.998747 1.003003
vt 0.998747 0.498761
vt 0.502101 0.498761
vt 0.751943 0.246826
vt 0.998747 0.755229
vt 0.751943 0.498761
vt 0.751943 0.755229
vt 0.502101 0.498761
vt 0.502101 1.003003
vt 0.001463 0.755229
vt 0.751943 1.003003
vt 0.751943 1.003003
vt 0.998747 0.498761
vt 0.998747 1.003003
vt 0.502101 0.755229
vt 0.502101 1.003003
vt 0.502101 0.498761
vt 0.998747 -0.000947
vt 0.001463 1.003003
vt 0.998747 0.498761
vt 0.165637 0.320292
vt 0.751943 1.003003
vt 0.502101 1.003003
vt 0.249236 0.755229
vt 0.998747 0.755229
vt 0.502101 1.003003
vt 0.249236 0.755229
vt 0.751943 0.246826
vt 0.998747 0.498761
vt 0.751943 1.003003
vt 0.998747 0.246826
vt 0.998747 0.755229
vt 0.751943 0.246826
vt 0.998747 0.755229
vt 0.001463 1.003003
vt 0.751943 0.246826
vt 0.502101 0.755229
vt 0.751943 1.003003
vt 0.751943 -0.000947
vt 0.502101 1.003003
vt 0.249236 1.003003
vt 0.751943 0.755229
vt 0.998747 1.003003
vt 0.751943 0.498761
vt 0.751943 1.003003
vt 0.502101 1.003003
vt 0.249236 1.003003
vt 0.998747 0.246826
vt 0.502101 0.755229
vt 0.751943 0.755229
vt 0.751943 1.003003
vt 0.998747 1.003003
vt 0.998747 0.755229
vt 0.751943 0.498761
vt 0.751943 1.003003
vt 0.998747 0.246826
vt 0.502101 1.003003
vt 0.998747 0.755229
vt 0.998747 0.498761
vt 0.502101 1.003003
vt 0.502101 0.755229
vt 0.502101 1.003003
vt 0.998747 0.755229
vt 0.001463 0.498761
vt 0.998747 0.498761
vt 0.751943 0.498761
vt 0.751943 0.755229
vt 0.998747 -0.000947
vt 0.998747 0.498761
vt 0.502101 0.498761
vt 0.751943 0.755229
vt 0.998747 0.246826
vt 0.998747 0.498761
vt 0.751943 1.003003
vt 0.998747 0.755229
vt 0.502101 1.003003
vt 0.502101 0.755229
vt 0.001463 1.003003
vt 0.502101 -0.000947
vt 0.502101 0.498761
vt 0.998747 -0.000947
vt 0.299183 0.247847
vt 0.998747 1.003003
vt 0.751943 -0.000947
vt 0.751943 0.755229
vt 0.998747 0.755229
vt 0.751943 0.498761
vt 0.502101 -0.000947
vt 0.001463 1.003003
vt 0.998747 0.755229
vt 0.502101 1.003003
vt 0.998747 1.003003
vt 0.998747 0.755229
vt 0.502101 0.755229
vt 0.751943 0.246826
vt 0.998747 0.498761
vt 0.998747 1.003003
vt 0.502101 1.003003
vt 0.001463 -0.000947
vt 0.998747 0.755229
vt 0.751943 0.755229
vt 0.751943 0.498761
vt 0.998747 0.755229
vt 0.502101 1.003003
vt 0.751943 1.003003
vt 0.502101 0.498761
vt 0.502101 -0.000947
vt 0.403598 0.096808
vt 0.998747 -0.000947
vt 0.998747 1.003003
vt 0.998747 -0.000947
vt 0.998747 0.755229
vt 0.751943 1.003003
vt 0.751943 0.755229
vt 0.502101 1.003003
vt 0.001463 0.498761
vt 0.502101 0.755229
vt 0.998747 0.755229
vt 0.751943 1.003003
vt 0.502101 0.246826
vt 0.751943 0.755229
vt 0.998747 0.498761
vt 0.751943 1.003003
vt 0.998747 1.003003
vt 0.751943 0.246826
vt 0.998747 1.003003
vt 0.998747 0.755229
vt 0.751943 0.755229
vt 0.751943 0.246826
vt 0.998747 -0.000947
vt 0.502101 0.755229
vt 0.502101 0.498761
vt 0.502101 1.003003
vt 0.751943 0.755229
vt 0.502101 0.498761
vt 0.001463 0.498761
vt 0.739847 0.132848
vt 0.502101 1.003003
vt 0.088998 0.277818
vt 0.502101 0.246826
s 0
f 48/220/1 45/204/1 55/248/1
f 45/205/2 48/218/2 53/239/2
f 44/201/3 49/223/3 46/212/3
f 48/221/4 35/159/4 1/1/4
f 35/160/5 49/222/5 44/201/5
f 45/207/6 26/120/6 46/210/6
f 55/248/7 46/211/7 49/223/7
f 26/122/8 57/261/8 44/201/8
f 35/161/9 48/219/9 62/280/9
f 53/240/10 48/220/10 1/2/10
f 26/122/11 44/202/11 46/211/11
f 1/3/12 35/162/12 44/202/12
f 55/249/13 45/206/13 46/212/13
f 56/252/14 51/232/14 37/168/14
f 52/235/15 58/264/15 47/213/15
f 57/258/16 51/230/16 53/241/16
f 21/99/17 41/188/17 57/259/17
f 21/100/18 57/260/18 26/122/18
f 58/264/19 11/49/19 54/244/19
f 47/213/20 58/265/20 54/246/20
f 37/169/21 51/231/21 41/189/21
f 37/170/22 21/97/22 11/49/22
f 47/214/23 51/232/23 56/256/23
f 54/245/24 26/121/24 45/207/24
f 56/253/25 37/171/25 11/46/25
f 21/98/26 37/171/26 41/190/26
f 54/247/27 21/99/27 26/122/27
f 11/47/28 21/100/28 54/246/28
f 47/215/29 45/208/29 53/243/29
f 52/234/30 47/216/30 56/254/30
f 38/172/31 11/47/31 40/182/31
f 52/235/32 40/182/32 58/266/32
f 38/173/33 30/136/33 11/48/33
f 50/225/34 56/255/34 30/137/34
f 40/184/35 43/197/35 38/174/35
f 38/175/36 43/196/36 30/138/36
f 52/236/37 22/101/37 40/183/37
f 22/104/38 52/237/38 50/226/38
f 40/184/39 11/49/39 58/267/39
f 31/141/40 59/268/40 43/197/40
f 59/268/41 9/36/41 22/102/41
f 31/141/42 27/123/42 9/40/42
f 43/200/43 7/29/43 36/164/43
f 34/154/44 42/194/44 14/63/44
f 36/164/45 14/63/45 42/194/45
f 14/63/46 40/185/46 22/102/46
f 59/270/47 31/142/47 9/37/47
f 14/62/48 22/103/48 34/158/48
f 7/30/49 43/198/49 40/186/49
f 31/143/50 43/199/50 27/125/50
f 27/124/51 43/200/51 36/165/51
f 7/31/52 40/187/52 14/63/52
f 36/165/53 7/32/53 14/64/53
f 22/104/54 9/41/54 34/155/54
f 25/115/55 10/42/55 27/123/55
f 20/95/56 25/116/56 17/74/56
f 39/176/57 25/117/57 20/92/57
f 17/75/58 27/124/58 36/166/58
f 10/43/59 39/177/59 9/38/59
f 25/118/60 39/178/60 10/44/60
f 10/45/61 9/39/61 27/125/61
f 17/76/62 25/119/62 27/126/62
f 17/77/63 36/167/63 42/192/63
f 20/93/64 18/80/64 32/144/64
f 12/55/65 29/132/65 33/148/65
f 42/193/66 34/156/66 29/135/66
f 18/82/67 12/51/67 33/151/67
f 32/145/68 19/89/68 15/65/68
f 9/40/69 23/106/69 34/157/69
f 20/94/70 12/52/70 18/81/70
f 23/107/71 9/41/71 15/68/71
f 12/53/72 42/194/72 29/132/72
f 20/95/73 17/78/73 12/54/73
f 12/55/74 17/79/74 42/195/74
f 23/108/75 29/133/75 34/158/75
f 19/85/76 32/146/76 18/82/76
f 39/179/77 32/147/77 15/66/77
f 60/275/78 29/134/78 23/111/78
f 55/250/79 49/224/79 35/163/79 62/281/79
f 24/112/80 19/86/80 28/127/80
f 3/10/81 23/109/81 28/128/81
f 3/11/82 6/26/82 4/15/82
f 28/129/83 19/87/83 6/25/83
f 16/69/84 60/272/84 4/16/84
f 33/149/85 60/273/85 16/70/85
f 13/56/86 8/33/86 5/21/86
f 3/12/87 60/274/87 23/109/87
f 19/88/88 2/5/88 5/22/88
f 6/26/89 5/24/89 8/33/89
f 33/150/90 13/57/90 2/6/90
f 16/71/91 4/17/91 61/277/91
f 6/28/92 3/13/92 28/130/92
f 60/275/93 3/14/93 4/18/93
f 2/7/94 13/58/94 5/23/94
f 19/89/95 18/83/95 2/8/95
f 33/151/96 16/72/96 13/59/96
f 18/84/97 33/152/97 2/9/97
f 19/90/98 5/24/98 6/27/98
f 4/19/99 6/28/99 8/34/99
f 53/242/100 1/3/100 57/261/100
f 1/4/101 44/203/101 57/262/101
f 51/232/102 47/216/102 53/243/102
f 41/191/103 51/233/103 57/263/103
f 47/217/104 54/247/104 45/209/104
f 50/227/105 30/140/105 59/269/105
f 50/228/106 52/238/106 56/256/106
f 56/257/107 11/50/107 30/139/107
f 30/140/108 43/200/108 59/270/108
f 59/271/109 22/105/109 50/229/109
f 15/68/110 24/113/110 23/110/110
f 15/67/111 19/91/111 24/114/111
f 20/96/112 32/147/112 39/180/112
f 9/41/113 39/181/113 15/68/113
f 28/131/114 23/111/114 24/114/114
f 60/276/115 33/153/115 29/135/115
f 61/278/116 13/60/116 16/73/116
f 62/282/117 48/221/117 55/251/117
f 8/35/118 13/61/118 61/279/118 4/20/118
